<?xml version="1.0" standalone="no"?>
<!DOCTYPE svg PUBLIC "-//W3C//DTD SVG 20010904//EN"
 "http://www.w3.org/TR/2001/REC-SVG-20010904/DTD/svg10.dtd">
<svg version="1.0" xmlns="http://www.w3.org/2000/svg"
 width="2545.000000pt" height="2545.000000pt" viewBox="0 0 2545.000000 2545.000000"
 preserveAspectRatio="xMidYMid meet">
<metadata>
Created by potrace 1.14, written by Peter Selinger 2001-2017
</metadata>
<g transform="translate(0.000000,2545.000000) scale(0.100000,-0.100000)"
fill="#000000" stroke="none">
<path d="M24450 23133 c-913 -39 -1790 -323 -2560 -830 -1054 -694 -1813
-1758 -2109 -2955 -94 -379 -147 -784 -186 -1433 -51 -842 -72 -1103 -116
-1413 -106 -764 -330 -1329 -703 -1777 l-25 -30 -32 40 c-104 130 -321 307
-460 375 -35 18 -57 41 -108 117 -118 175 -304 349 -483 452 -171 98 -342 157
-558 192 -168 28 -480 23 -635 -11 -274 -59 -550 -189 -807 -381 -178 -132
-346 -289 -669 -621 -504 -519 -652 -658 -836 -785 -314 -217 -697 -297 -1016
-213 -108 28 -241 88 -365 162 -114 69 -169 121 -341 328 -52 63 -98 117 -101
120 -26 23 -358 452 -621 800 -410 543 -674 846 -1090 1245 -68 66 -178 167
-244 225 -66 57 -188 170 -270 250 -631 611 -1210 1040 -1900 1408 -457 243
-795 382 -1570 642 -291 98 -579 196 -640 218 -396 143 -960 366 -1235 488
-287 127 -787 382 -892 455 -34 24 -55 24 -68 -1 -9 -16 -2 -28 42 -78 120
-134 239 -407 451 -1027 89 -262 122 -345 182 -465 89 -177 180 -298 271 -361
65 -44 87 -114 185 -574 55 -259 100 -413 159 -541 105 -227 268 -384 474
-453 44 -15 50 -22 68 -67 25 -65 65 -225 133 -527 76 -340 108 -465 156 -604
103 -297 232 -488 407 -603 70 -47 167 -86 227 -92 20 -2 36 -13 51 -35 32
-48 119 -275 196 -513 151 -468 222 -640 342 -820 71 -105 182 -218 264 -265
48 -28 54 -36 91 -120 44 -101 98 -243 195 -512 83 -229 132 -341 202 -466
145 -255 314 -413 513 -477 l68 -22 96 -196 c106 -217 155 -298 227 -372 88
-90 219 -161 330 -178 l48 -7 -58 -101 c-435 -767 -1208 -1263 -2177 -1398
-62 -9 -338 -36 -615 -61 -761 -69 -1083 -111 -1428 -186 -523 -113 -797 -255
-931 -480 -136 -228 -128 -459 22 -655 l39 -51 -91 -89 c-203 -199 -299 -411
-286 -633 10 -165 69 -302 177 -412 104 -106 236 -157 371 -146 l68 6 -28 -62
c-99 -221 -137 -455 -97 -603 60 -227 270 -377 561 -400 l80 -7 2 -64 c5 -203
103 -357 288 -448 75 -37 96 -53 106 -77 21 -50 122 -151 182 -182 84 -42 150
-57 290 -63 l127 -6 0 -81 c1 -263 135 -438 376 -492 92 -20 337 -15 422 9 28
8 52 12 52 7 0 -4 -7 -43 -16 -86 -42 -201 35 -375 192 -433 134 -51 271 -35
444 50 92 46 117 64 201 148 58 58 109 120 130 158 l34 61 65 7 c246 24 430
94 616 236 99 76 320 296 430 429 146 176 366 478 529 726 388 590 512 758
700 950 415 424 819 552 2025 644 74 5 341 23 592 40 527 35 699 51 928 86
754 116 1409 357 1965 722 282 186 563 433 804 707 237 269 459 590 664 960
85 153 262 512 355 721 49 109 129 283 177 387 82 173 91 187 115 187 98 0
222 99 254 204 22 71 18 154 -12 212 l-20 39 31 57 c18 32 35 58 39 58 4 0 22
-12 38 -27 30 -27 32 -32 56 -213 13 -102 24 -197 24 -213 0 -17 -15 -46 -43
-80 -62 -76 -89 -146 -95 -242 -7 -138 38 -237 145 -318 l55 -42 -5 -230 c-6
-234 -20 -361 -58 -507 -63 -251 -183 -472 -339 -628 -84 -84 -107 -101 -628
-451 -206 -138 -372 -253 -369 -255 2 -2 40 15 83 39 43 24 115 63 159 87 249
134 603 331 689 384 132 80 281 226 366 356 179 274 269 597 296 1057 l7 121
30 6 c43 9 121 61 153 103 35 46 64 123 64 171 0 64 -28 139 -65 177 -64 63
-170 73 -170 15 0 -21 6 -26 43 -33 61 -12 84 -51 80 -133 -4 -69 -35 -122
-88 -149 -47 -25 -50 -21 -50 68 0 46 -5 155 -11 242 -9 130 -8 159 3 167 7 5
46 7 86 5 58 -3 87 -11 145 -40 118 -58 123 -67 147 -241 20 -146 47 -376 72
-611 17 -161 17 -710 0 -830 -57 -395 -208 -710 -434 -906 -43 -36 -184 -138
-315 -225 -329 -220 -556 -374 -568 -386 -13 -13 0 -7 240 125 110 60 274 150
365 199 342 187 483 299 609 489 146 217 229 448 275 764 54 368 46 779 -29
1463 -14 123 -25 228 -25 233 0 5 12 9 28 9 129 1 327 122 458 281 105 127
234 364 234 430 0 20 -3 21 -52 15 -180 -23 -498 -277 -639 -510 -19 -30 -37
-56 -40 -56 -8 0 -18 119 -29 335 -8 168 -1 291 25 411 26 116 98 290 121 288
5 0 38 -14 74 -32 103 -50 179 -65 315 -65 135 1 275 26 409 72 91 32 167 68
178 85 18 27 -92 91 -207 120 -158 40 -422 45 -575 12 -36 -8 -67 -12 -70 -9
-3 3 43 52 102 109 l108 104 219 0 220 0 20 27 c29 35 21 55 -50 121 -32 30
-59 60 -59 66 0 6 51 39 113 73 61 35 137 78 167 96 l55 33 70 -32 c80 -37
197 -64 282 -64 78 0 220 24 318 53 152 46 335 135 335 164 0 20 -82 62 -166
83 -137 36 -316 37 -529 4 l-40 -7 82 84 c131 133 265 312 349 467 29 52 29
52 69 46 95 -13 268 39 386 117 115 77 248 211 341 345 40 56 78 127 78 144 0
18 -124 11 -196 -11 -145 -44 -355 -171 -477 -288 l-48 -46 45 130 c136 398
187 757 178 1260 l-2 140 -43 -45 c-136 -144 -238 -303 -305 -478 l-28 -73
-77 -33 c-122 -53 -269 -150 -371 -245 -28 -25 -37 -30 -31 -16 90 238 155
511 191 800 19 151 27 666 10 682 -12 11 -125 -115 -195 -217 -108 -158 -180
-326 -218 -510 -8 -42 -17 -153 -20 -250 -6 -194 6 -291 50 -399 l24 -60 -47
-88 c-69 -130 -197 -329 -206 -320 -2 2 2 32 8 68 16 94 14 359 -5 449 -21
102 -51 179 -87 220 -29 34 -30 35 -46 15 -51 -65 -123 -254 -154 -405 -24
-120 -27 -296 -4 -390 8 -36 31 -96 50 -135 l36 -70 -56 -52 c-94 -87 -308
-243 -334 -243 -5 0 -19 46 -31 103 -56 252 -170 534 -297 733 -16 24 -16 27
-2 16 14 -12 24 -4 77 60 374 450 604 1032 716 1813 44 307 71 631 110 1295
45 783 94 1169 197 1575 211 830 649 1595 1263 2210 770 770 1774 1265 2845
1404 419 54 938 49 1292 -14 46 -8 89 -15 96 -15 8 0 12 21 12 74 l0 73 -57
12 c-215 42 -645 67 -933 54z m-19740 -3600 c481 -213 1151 -467 1805 -683
708 -235 972 -338 1400 -550 210 -104 543 -285 569 -311 5 -4 -62 23 -148 61
-309 137 -495 206 -1061 393 -499 165 -966 333 -1320 476 -262 107 -364 149
-550 232 -185 81 -555 261 -625 303 -135 81 -293 166 -300 161 -19 -12 -10
-47 21 -78 122 -126 242 -399 473 -1077 81 -235 105 -295 168 -422 85 -173
165 -282 253 -349 83 -63 105 -121 184 -499 29 -135 54 -253 57 -263 5 -17 4
-17 -31 -2 -71 29 -166 106 -216 174 -104 142 -161 306 -243 694 -65 306 -92
407 -142 523 -33 77 -39 84 -95 119 -133 82 -239 271 -379 681 -59 171 -176
499 -205 577 -6 14 8 10 71 -19 44 -20 185 -84 314 -141z m1327 -3326 c64 -48
153 -93 201 -103 17 -4 36 -11 41 -18 26 -31 74 -214 176 -671 31 -137 64
-278 74 -312 11 -35 17 -63 15 -63 -16 0 -106 54 -141 84 -162 140 -275 409
-388 921 -19 88 -37 170 -40 183 -3 12 -3 22 0 22 2 0 31 -19 62 -43z m11055
-556 c277 -48 508 -159 688 -331 41 -39 66 -69 55 -65 -66 21 -261 37 -405 32
-359 -12 -650 -109 -979 -324 -246 -161 -454 -348 -884 -798 -413 -432 -562
-569 -778 -716 -241 -165 -595 -256 -854 -221 -228 31 -487 155 -735 353 -63
50 -64 51 -30 45 230 -44 483 -20 744 71 321 111 560 299 1106 868 312 325
435 447 570 566 332 292 650 462 970 519 148 26 381 26 532 1z m3496 -1202 c3
-117 20 -212 55 -298 l24 -60 -47 -88 c-74 -139 -204 -342 -221 -343 -3 0 1
33 8 73 19 104 19 363 -1 461 -16 81 -42 161 -59 184 -12 15 -13 14 48 45 28
14 79 48 115 76 36 28 67 51 70 51 3 0 6 -46 8 -101z m-367 -126 c-54 -109
-110 -338 -113 -476 -3 -73 -5 -86 -18 -81 -33 15 -335 16 -422 2 l-87 -14 73
76 c130 136 278 337 342 463 l24 47 78 1 c62 1 118 8 140 18 1 0 -6 -16 -17
-36z m-13101 -83 c25 -10 66 -21 92 -25 45 -7 48 -10 76 -64 39 -73 116 -282
187 -501 31 -96 67 -205 79 -242 l23 -67 -37 19 c-162 83 -319 352 -460 793
-31 96 -35 117 -22 111 10 -3 37 -15 62 -24z m13061 -741 l31 -62 -39 -39
c-52 -55 -284 -227 -363 -270 -36 -20 -119 -64 -185 -98 -66 -34 -139 -73
-161 -86 l-42 -25 -81 89 c-144 157 -138 143 -142 321 l-4 153 50 29 50 28 60
-29 c104 -51 172 -63 330 -57 148 5 259 29 383 81 31 13 63 24 69 25 7 0 27
-27 44 -60z m-12108 -919 c53 -29 57 -35 95 -123 44 -101 105 -259 180 -469
l49 -137 -30 17 c-51 29 -153 138 -210 224 -90 137 -162 292 -247 532 -23 65
-44 124 -47 131 -2 8 31 -22 75 -65 44 -43 105 -93 135 -110z m10787 -94 c0
-2 -31 -46 -70 -98 -38 -51 -77 -109 -87 -129 -10 -21 -33 -45 -52 -55 -147
-79 -346 -269 -457 -438 l-39 -60 -5 60 c-5 57 -4 61 40 119 24 33 47 62 50
65 3 3 27 32 54 65 68 84 259 271 333 328 64 49 212 145 226 146 4 1 7 -1 7
-3z m-326 -873 c-7 -87 8 -325 32 -511 9 -68 14 -126 11 -128 -2 -3 -20 4 -39
16 -67 39 -149 61 -234 61 l-81 1 -22 211 c-12 117 -24 224 -27 238 -5 26 -3
27 61 39 73 14 198 71 260 119 22 17 41 31 43 31 1 0 0 -35 -4 -77z m-797
-479 c-6 -36 -50 -104 -68 -104 -5 0 7 32 27 70 20 39 38 70 41 70 3 0 3 -16
0 -36z m303 -506 c0 -24 2 -61 5 -83 l5 -40 -14 30 c-17 34 -21 135 -6 135 6
0 10 -19 10 -42z m-8661 -99 c100 -150 252 -259 403 -289 l66 -13 -25 -46
c-166 -302 -363 -549 -609 -761 -295 -255 -626 -439 -1012 -564 -300 -97 -521
-135 -1042 -181 -984 -86 -1325 -132 -1725 -231 -464 -115 -711 -263 -821
-490 -47 -99 -63 -156 -70 -249 -10 -128 32 -256 117 -357 21 -26 39 -49 39
-52 0 -3 -39 -43 -86 -88 -86 -83 -172 -194 -214 -278 -12 -25 -24 -46 -25
-48 -2 -2 -43 -15 -92 -28 -104 -30 -152 -27 -225 13 -54 29 -92 72 -128 143
-66 130 -65 269 3 405 69 138 141 218 317 353 69 52 127 97 129 99 3 2 -48 56
-112 121 -152 154 -183 223 -157 349 45 218 218 353 591 462 365 106 763 166
1609 241 532 47 667 63 850 96 494 91 940 275 1322 546 307 217 615 549 800
860 22 38 42 67 43 66 2 -2 26 -37 54 -79z m-4875 -4373 c97 -97 214 -141 353
-134 45 2 83 3 83 2 0 -1 -13 -31 -29 -66 -15 -35 -38 -91 -51 -125 l-22 -63
-55 0 c-139 0 -294 57 -358 133 -52 61 -69 122 -62 231 3 50 11 108 17 129
l11 39 29 -45 c15 -25 53 -70 84 -101z m1356 -1119 c0 -2 -7 -24 -16 -50 -15
-46 -16 -46 -71 -53 -64 -8 -196 0 -233 14 -23 9 -20 10 25 17 82 12 180 35
231 55 49 19 64 23 64 17z"/>
<path d="M9276 22863 c-3 -21 -6 -234 -6 -473 -1 -676 -13 -964 -50 -1213 -29
-198 -41 -260 -125 -645 -53 -243 -67 -357 -70 -557 -3 -169 -5 -189 -38 -320
-89 -347 -115 -657 -66 -779 28 -69 47 -84 237 -181 103 -52 232 -123 287
-158 l99 -62 13 -88 c8 -58 22 -105 39 -138 26 -47 33 -53 177 -125 203 -103
315 -168 488 -286 139 -94 153 -106 268 -241 370 -435 563 -726 1236 -1862
264 -446 412 -653 599 -841 120 -121 241 -211 338 -253 36 -15 61 -40 125
-123 222 -287 425 -449 646 -513 52 -15 239 -46 244 -41 2 1 -19 61 -46 133
-106 281 -167 559 -215 993 -27 240 -36 416 -46 910 -13 687 -25 970 -56 1375
-22 298 -74 760 -104 935 -5 30 -21 125 -36 210 -145 869 -387 1535 -742 2045
-173 249 -418 496 -654 662 -49 34 -101 84 -144 136 -95 115 -275 291 -385
377 -270 209 -508 337 -959 516 -530 210 -701 306 -921 521 l-126 123 -7 -37z
m327 -516 c53 -32 150 -83 214 -114 l116 -56 -7 -636 c-5 -467 -10 -672 -22
-771 -24 -217 -69 -479 -124 -718 -76 -336 -92 -448 -96 -665 -3 -180 -4 -194
-43 -350 -22 -89 -46 -196 -52 -237 -7 -41 -13 -76 -14 -78 -1 -1 -44 22 -95
53 -51 30 -150 83 -219 117 -69 34 -130 67 -134 72 -13 17 -1 282 17 381 9 50
35 164 58 255 41 162 42 168 43 350 2 218 15 310 90 645 125 559 154 835 155
1473 0 189 3 342 8 340 4 -1 51 -29 105 -61z m737 -335 c207 -82 321 -134 444
-203 98 -55 308 -191 303 -196 -4 -3 -177 65 -362 142 -139 58 -331 158 -430
225 -78 52 -169 122 -140 107 6 -3 89 -36 185 -75z m1314 -5622 c58 -84 171
-259 276 -428 66 -105 216 -355 305 -507 48 -82 101 -171 116 -197 16 -27 27
-48 25 -48 -8 0 -171 232 -243 345 -39 61 -172 283 -298 495 -125 212 -236
401 -248 420 -35 59 -2 20 67 -80z"/>
<path d="M7159 10904 c-399 -301 -836 -526 -1334 -687 -926 -301 -2065 -356
-3245 -157 -645 109 -1323 283 -2245 578 -137 44 -263 85 -278 91 -16 6 -33
11 -38 11 -5 0 -9 -35 -9 -78 l0 -79 98 -30 c53 -17 221 -70 372 -117 733
-232 1405 -405 1942 -500 260 -46 298 -52 483 -75 756 -96 1504 -89 2160 20
394 66 803 178 1132 310 376 150 870 434 1091 624 l37 32 -39 49 c-22 27 -42
52 -46 57 -3 4 -40 -18 -81 -49z"/>
</g>
</svg>
